<?xml version="1.0" encoding="UTF-8"?>
<svg id="Capa_2" data-name="Capa 2" xmlns="http://www.w3.org/2000/svg" viewBox="0 0 14.96 14.96">
  <defs>
    <style>
      .cls-1 {
        fill: #070707;
      }

      .cls-1, .cls-2 {
        stroke-width: 0px;
      }

      .cls-2 {
        fill: #fff;
      }
    </style>
  </defs>
  <circle class="cls-2" cx="7.48" cy="7.48" r="7.48"/>
  <g>
    <g>
      <path class="cls-1" d="M8.18,9.24s-.07.32-.7.35c-.63-.03-.7-.35-.7-.35L.89,7.68l1.64,3.87c3.49.1,4.95,1.41,4.95,1.41,0,0,1.45-1.31,4.95-1.41l1.64-3.87-5.89,1.56Z"/>
      <path class="cls-1" d="M13.09,7.14c-.12.97-1.95,1.06-3.16.98-1.37-.09-2.33.91-2.33.91,1.22-1.28,1.8-1.12,3.56-1.1,1.62.02,1.83-.79,1.83-.79-.54.76-2.78.49-3.65.65-1.25.22-1.74,1.09-1.74,1.09.75-1.76,2.77-1.15,4.18-1.33.91-.12,1.14-.4,1.14-.4-.56.32-2.55.07-3.82.35-1.13.25-1.61,1.35-1.61,1.35,0,0-.49-1.1-1.61-1.35-1.27-.28-3.27-.03-3.82-.35,0,0,.22.29,1.14.4,1.41.18,3.43-.43,4.18,1.33,0,0-.49-.87-1.74-1.09-.87-.15-3.1.12-3.65-.65,0,0,.21.81,1.83.79,1.76-.02,2.34-.18,3.56,1.1,0,0-.97-1-2.33-.91-1.21.08-3.04-.01-3.16-.98l-.82.44,5.86,1.45s.1.28.57.34c.47-.06.57-.34.57-.34l5.86-1.45-.82-.44Z"/>
    </g>
    <g>
      <polygon class="cls-1" points="7.48 1.99 7.75 2.84 8.65 2.84 7.93 3.37 8.2 4.22 7.48 3.69 6.76 4.22 7.03 3.37 6.31 2.84 7.2 2.84 7.48 1.99"/>
      <g>
        <polygon class="cls-1" points="10.44 3.65 10.59 4.13 11.1 4.13 10.69 4.43 10.85 4.91 10.44 4.61 10.03 4.91 10.19 4.43 9.78 4.13 10.28 4.13 10.44 3.65"/>
        <polygon class="cls-1" points="12.94 5.44 13.04 5.77 13.39 5.77 13.11 5.98 13.22 6.31 12.94 6.11 12.65 6.31 12.76 5.98 12.48 5.77 12.83 5.77 12.94 5.44"/>
        <polygon class="cls-1" points="4.52 3.65 4.36 4.13 3.86 4.13 4.27 4.43 4.11 4.91 4.52 4.61 4.93 4.91 4.77 4.43 5.18 4.13 4.68 4.13 4.52 3.65"/>
        <polygon class="cls-1" points="2.02 5.44 1.92 5.77 1.57 5.77 1.85 5.98 1.74 6.31 2.02 6.11 2.31 6.31 2.2 5.98 2.48 5.77 2.13 5.77 2.02 5.44"/>
      </g>
    </g>
  </g>
</svg>